<?xml version="1.0" encoding="UTF-8"?>
<svg version="1.1" xmlns="http://www.w3.org/2000/svg" width="512" height="512">
<path d="M0 0 C2.27967653 4.27500652 2.30535824 8.4525499 2.31884766 13.18676758 C2.32889328 13.99704407 2.3389389 14.80732056 2.34928894 15.64215088 C2.38007993 18.30960406 2.39714466 20.97695704 2.4140625 23.64453125 C2.43277744 25.49827433 2.4523511 27.35200892 2.4727478 29.20573425 C2.52404058 34.0767618 2.56368161 38.94781695 2.60089111 43.81896973 C2.64094862 48.79279393 2.69203301 53.76650355 2.7421875 58.74023438 C2.83891301 68.49340906 2.92332864 78.24664849 3 88 C3.55938263 88.30409286 4.11876526 88.60818573 4.69509888 88.92149353 C7.28008573 90.32889229 9.86270002 91.74059301 12.4453125 93.15234375 C13.32485596 93.63038452 14.20439941 94.10842529 15.1105957 94.60095215 C23.70017406 99.30363739 31.90589759 104.49454278 40 110 C40.90758057 110.61609131 40.90758057 110.61609131 41.83349609 111.24462891 C51.65286699 117.96314583 60.84302788 125.41279453 70 133 C71.10376496 132.07292843 72.20478554 131.14258897 73.3046875 130.2109375 C73.91812012 129.69321777 74.53155273 129.17549805 75.16357422 128.64208984 C76.9386663 127.05484319 78.53114673 125.39198663 80.125 123.625 C93.69175788 109.90648868 112.12689282 104.87985667 130.80761719 104.77294922 C134.63752967 104.76598383 138.4670268 104.78400487 142.296875 104.8046875 C144.34238547 104.80842435 146.38789774 104.81126814 148.43341064 104.81326294 C153.77955187 104.82084652 159.12558194 104.84044888 164.47167969 104.8626709 C169.942042 104.88324383 175.41242253 104.89228898 180.8828125 104.90234375 C191.58859012 104.92370042 202.29428576 104.9577716 213 105 C213.01302788 107.07827103 213.02231677 109.15656573 213.0300293 111.23486328 C213.03560349 112.39220978 213.04117767 113.54955627 213.04692078 114.74197388 C212.74386272 135.78533994 203.66234591 158.46494156 188.81640625 173.3984375 C183.71148328 178.11394193 178.27091441 182.00024595 172 185 C172.70125 185.42410156 173.4025 185.84820312 174.125 186.28515625 C194.07501744 198.61838714 204.79566584 216.25366068 210.48022461 238.77172852 C212.47006692 247.30216099 213.36012373 255.42473415 213.3125 264.1875 C213.30404053 265.83105469 213.30404053 265.83105469 213.29541016 267.5078125 C212.93536602 291.71988965 205.03374673 315.75224976 187.8046875 333.2265625 C182.96409924 337.72982754 177.92685496 341.08561269 172 344 C172.68964844 344.4125 173.37929688 344.825 174.08984375 345.25 C196.25670436 358.87243285 205.74735453 378.52434015 211.75 403.06640625 C212.79045009 408.03022022 213.07827836 412.7563814 213.04296875 417.828125 C213.03676514 418.98731445 213.03056152 420.14650391 213.02416992 421.34082031 C213.01619385 422.21834961 213.00821777 423.09587891 213 424 C200.69043974 424.06972867 188.38092702 424.12292703 176.07120895 424.15543652 C170.35436745 424.17104501 164.63766179 424.19219485 158.92089844 424.22631836 C153.39658536 424.2590841 147.87240238 424.27688918 142.34799957 424.28463173 C140.24783533 424.29014446 138.14767764 424.30090892 136.04756927 424.31719017 C122.16635802 424.4204561 109.66855925 423.97073405 97.0625 417.5 C96.05799805 416.9894104 96.05799805 416.9894104 95.03320312 416.46850586 C84.27145666 410.7369833 75.74546109 402.3252387 68 393 C66.85020618 393.86190681 65.70048195 394.72390647 64.55078125 395.5859375 C63.44984131 396.41109863 63.44984131 396.41109863 62.32666016 397.25292969 C60.83760701 398.37104767 59.35014614 399.4912913 57.86474609 400.61425781 C24.77949907 425.60796307 -10.82847766 445.45119814 -51.5 454.875 C-52.32226074 455.06610352 -53.14452148 455.25720703 -53.99169922 455.45410156 C-68.01355197 458.5000471 -81.89139767 459.37976494 -96.1875 459.3125 C-96.99637665 459.31067719 -97.8052533 459.30885437 -98.63864136 459.30697632 C-111.29815647 459.25908093 -123.58634568 458.67310833 -136 456 C-136.81597656 455.82839355 -137.63195312 455.65678711 -138.47265625 455.47998047 C-156.73789937 451.53121558 -174.32940509 445.43626892 -191 437 C-191.73041504 436.63535645 -192.46083008 436.27071289 -193.21337891 435.89501953 C-217.88969209 423.51820149 -240.27431863 407.70843624 -260.66796875 389.11328125 C-262.75034736 387.22623463 -264.86503064 385.38941767 -267 383.5625 C-274.57602361 376.95069758 -281.54866348 369.70657394 -288 362 C-288.69351562 361.195625 -289.38703125 360.39125 -290.1015625 359.5625 C-295.65606259 352.93749625 -299.44016875 347.73784376 -298.9375 338.875 C-297.69046502 325.52953792 -279.86470167 311.66046667 -270.9375 302.6875 C-270.02822754 301.76904297 -269.11895508 300.85058594 -268.18212891 299.90429688 C-262.09448668 293.84400255 -255.72612639 288.33680177 -249 283 C-247.6990176 281.93934117 -246.39935525 280.87705922 -245.1015625 279.8125 C-237.3057295 273.48677579 -229.35090975 267.57666148 -221 262 C-224.45955052 259.18828037 -227.99175058 256.49625929 -231.56982422 253.83911133 C-242.50839764 245.71379657 -252.92762464 237.18129634 -263 228 C-264.7081916 226.47900748 -266.41652449 224.95817362 -268.125 223.4375 C-275.23434812 217.02907352 -281.8130394 210.30009577 -288 203 C-289.17175781 201.66195312 -289.17175781 201.66195312 -290.3671875 200.296875 C-296.07767432 193.61943674 -299.35724414 188.93939063 -298.875 179.9375 C-297.79342666 166.59088502 -279.84307374 152.63872787 -270.9375 143.6875 C-270.02822754 142.76904297 -269.11895508 141.85058594 -268.18212891 140.90429688 C-262.09434108 134.8438576 -255.73171087 129.33045995 -249 124 C-247.55207357 122.82683496 -246.10415621 121.65365873 -244.65625 120.48046875 C-234.23466997 112.17264142 -223.4474703 104.81907941 -212 98 C-211.32259766 97.59442871 -210.64519531 97.18885742 -209.94726562 96.77099609 C-194.75039113 87.74737933 -178.95467 80.06563197 -162.1875 74.4375 C-161.19169922 74.10290771 -160.19589844 73.76831543 -159.16992188 73.42358398 C-153.75463623 71.67777016 -148.6708603 70.48990864 -143 70 C-142.75121094 69.12601562 -142.50242188 68.25203125 -142.24609375 67.3515625 C-133.32814078 43.36534417 -104.63621629 25.6382459 -82.76928711 15.36376953 C-66.22466623 7.88887782 -16.46041954 -13.25978241 0 0 Z M67 233 C66.34257812 233.57105469 65.68515625 234.14210938 65.0078125 234.73046875 C58.77953642 240.03885039 52.38480184 245.02008828 45.75 249.8125 C45.00637207 250.35092529 44.26274414 250.88935059 43.49658203 251.4440918 C39.25297928 254.48337799 34.95831072 257.30806618 30.44238281 259.9284668 C29.96639648 260.28207275 29.49041016 260.63567871 29 261 C29 261.66 29 262.32 29 263 C30.9105811 264.33397832 32.82017779 265.54811878 34.8125 266.75 C41.02725532 270.62097925 46.98064855 274.7828297 52.875 279.125 C53.6585083 279.69831055 54.4420166 280.27162109 55.24926758 280.86230469 C60.39071221 284.67142749 65.24968679 288.71384449 70 293 C73.55578295 290.02475304 76.9317355 287.10578369 80.0625 283.6875 C90.2139866 273.5360134 102.47745116 268.90958045 116 265 C116 264.67 116 264.34 116 264 C115.30777344 263.87625 114.61554688 263.7525 113.90234375 263.625 C96.50179417 259.95689996 83.1069642 249.66148164 71 237 C69.66904125 235.6642963 68.33621621 234.33044421 67 233 Z " fill="#3B97D2" transform="translate(299,31)"/>
<path d="M0 0 C2.27967653 4.27500652 2.30535824 8.4525499 2.31884766 13.18676758 C2.33391609 14.40218231 2.33391609 14.40218231 2.34928894 15.64215088 C2.38007993 18.30960406 2.39714466 20.97695704 2.4140625 23.64453125 C2.43277744 25.49827433 2.4523511 27.35200892 2.4727478 29.20573425 C2.52404058 34.0767618 2.56368161 38.94781695 2.60089111 43.81896973 C2.64094862 48.79279393 2.69203301 53.76650355 2.7421875 58.74023438 C2.83891301 68.49340906 2.92332864 78.24664849 3 88 C3.55938263 88.30409286 4.11876526 88.60818573 4.69509888 88.92149353 C7.28008573 90.32889229 9.86270002 91.74059301 12.4453125 93.15234375 C13.76462769 93.86940491 13.76462769 93.86940491 15.1105957 94.60095215 C23.70017406 99.30363739 31.90589759 104.49454278 40 110 C40.60505371 110.41072754 41.21010742 110.82145508 41.83349609 111.24462891 C51.65286699 117.96314583 60.84302788 125.41279453 70 133 C71.10376496 132.07292843 72.20478554 131.14258897 73.3046875 130.2109375 C73.91812012 129.69321777 74.53155273 129.17549805 75.16357422 128.64208984 C76.9386663 127.05484319 78.53114673 125.39198663 80.125 123.625 C93.69175788 109.90648868 112.12689282 104.87985667 130.80761719 104.77294922 C134.63752967 104.76598383 138.4670268 104.78400487 142.296875 104.8046875 C144.34238547 104.80842435 146.38789774 104.81126814 148.43341064 104.81326294 C153.77955187 104.82084652 159.12558194 104.84044888 164.47167969 104.8626709 C169.942042 104.88324383 175.41242253 104.89228898 180.8828125 104.90234375 C191.58859012 104.92370042 202.29428576 104.9577716 213 105 C213.01302788 107.07827103 213.02231677 109.15656573 213.0300293 111.23486328 C213.03560349 112.39220978 213.04117767 113.54955627 213.04692078 114.74197388 C212.74386272 135.78533994 203.66234591 158.46494156 188.81640625 173.3984375 C183.71148328 178.11394193 178.27091441 182.00024595 172 185 C172.70125 185.42410156 173.4025 185.84820312 174.125 186.28515625 C196.1615378 199.90828763 205.76339655 219.5899286 211.75 244.06640625 C212.79045009 249.03022022 213.07827836 253.7563814 213.04296875 258.828125 C213.03676514 259.98731445 213.03056152 261.14650391 213.02416992 262.34082031 C213.01619385 263.21834961 213.00821777 264.09587891 213 265 C200.56005554 265.06972449 188.12015811 265.12292494 175.68005753 265.15543652 C169.90268263 265.17104591 164.12544211 265.19219743 158.34814453 265.22631836 C152.7654769 265.25908084 147.18293798 265.27688851 141.60018158 265.28463173 C139.47768887 265.29014503 137.35520264 265.30091065 135.2327652 265.31719017 C110.74690127 265.49741367 93.61913491 259.91744332 75.65234375 242.7578125 C73.74028911 240.86310863 71.86331589 238.94241893 70 237 C69.00227014 235.997735 68.00305341 234.99693723 67 234 C66.01386719 234.85658203 66.01386719 234.85658203 65.0078125 235.73046875 C58.77953642 241.03885039 52.38480184 246.02008828 45.75 250.8125 C44.63455811 251.62013794 44.63455811 251.62013794 43.49658203 252.4440918 C41.34556815 253.98465701 39.17525919 255.49393651 37 257 C36.29037109 257.51739746 35.58074219 258.03479492 34.84960938 258.56787109 C34.16189453 259.04434082 33.47417969 259.52081055 32.765625 260.01171875 C32.16008789 260.44315186 31.55455078 260.87458496 30.93066406 261.3190918 C28.12683544 262.3079484 26.70496185 261.13133937 24 260 C23.12478195 259.75677505 22.2495639 259.51355011 21.3478241 259.26295471 C13.29775329 257.00362262 6.03787945 253.90890132 1 247 C-3.45871601 234.82016986 -1.37485625 219.62979877 -0.80969238 206.93774414 C-0.56641108 200.96434969 -0.46935677 194.98713009 -0.36501026 189.00994968 C-0.2832535 184.36329297 -0.17534577 179.72289879 0.01570129 175.07933044 C0.04361252 174.22858444 0.07152374 173.37783844 0.10028076 172.50131226 C0.15243286 170.91608193 0.21986709 169.33124886 0.3056488 167.7474823 C0.40221165 164.24032358 0.28656954 162.38560328 -1.8372345 159.52784729 C-8.45425284 154.85337217 -21.41450571 158.1946588 -29.12304688 159.44848633 C-58.96772973 164.81101933 -90.54939524 175.09383779 -114 195 C-114.85464844 195.71671875 -115.70929688 196.4334375 -116.58984375 197.171875 C-127.65745142 206.72902248 -127.65745142 206.72902248 -135.92578125 218.6015625 C-139.67933708 225.8653086 -142.61108384 229.49717396 -150.61767578 232.10620117 C-160.99638774 235 -160.99638774 235 -166 235 C-165.74605469 233.90945313 -165.49210937 232.81890625 -165.23046875 231.6953125 C-164.29397241 227.62803406 -163.40603144 223.55141686 -162.53466797 219.46972656 C-162.20643655 217.95356717 -161.8690157 216.43931845 -161.51611328 214.92871094 C-156.57232247 193.63981371 -156.84797935 168.20509788 -162 147 C-162.29003906 145.73285156 -162.58007812 144.46570313 -162.87890625 143.16015625 C-167.63770718 123.86610561 -175.78289788 106.13650828 -186.53125 89.4765625 C-188 87 -188 87 -188 85 C-178.78906322 80.66414684 -169.58983823 76.64132966 -159.875 73.5625 C-159.10696045 73.31612793 -158.3389209 73.06975586 -157.54760742 72.81591797 C-152.69807468 71.33049453 -148.04796571 70.49792859 -143 70 C-142.62681641 68.68902344 -142.62681641 68.68902344 -142.24609375 67.3515625 C-133.32814078 43.36534417 -104.63621629 25.6382459 -82.76928711 15.36376953 C-66.22466623 7.88887782 -16.46041954 -13.25978241 0 0 Z " fill="#2980B9" transform="translate(299,31)"/>
<path d="M0 0 C2.35835117 1.56675293 3.3117984 2.96913798 4.73022461 5.41186523 C5.21813477 6.25040039 5.70604492 7.08893555 6.20874023 7.95288086 C6.96960938 9.31316406 6.96960938 9.31316406 7.74584961 10.70092773 C8.2737207 11.63614258 8.8015918 12.57135742 9.34545898 13.53491211 C23.20561082 38.67226421 30.21319432 65.74980473 30.30834961 94.38842773 C30.31227722 95.51734436 30.31227722 95.51734436 30.31628418 96.66906738 C30.32089176 109.07333553 29.33688635 120.87399771 26.49438477 132.98852539 C26.02604573 135.18435199 25.73927357 137.32510194 25.50756836 139.55639648 C24.88196603 143.59514894 24.35549331 145.97541803 21.99584961 149.32592773 C15.88803613 153.46430136 7.45984302 157.32592773 -0.00415039 157.32592773 C0.47828125 158.09332275 0.47828125 158.09332275 0.97045898 158.8762207 C14.99390298 181.3267343 24.93650084 204.04237457 28.99584961 230.32592773 C29.16785889 231.39375488 29.33986816 232.46158203 29.51708984 233.56176758 C30.00693534 237.41308727 30.17461738 241.19306454 30.19897461 245.06811523 C30.20467468 245.79475372 30.21037476 246.52139221 30.21624756 247.27005005 C30.2256448 248.80461194 30.2322104 250.33919352 30.23608398 251.8737793 C30.24567911 254.16029832 30.27670526 256.44587317 30.30834961 258.73217773 C30.41185124 272.99913075 28.09424941 286.50459064 24.30834961 300.26342773 C24.05561279 301.18309326 23.80287598 302.10275879 23.54248047 303.05029297 C20.90855318 312.22826683 17.25850083 320.79643596 12.99584961 329.32592773 C12.68470215 329.94854492 12.37355469 330.57116211 12.05297852 331.21264648 C8.49496557 338.23348744 4.53226376 344.89518679 -0.00415039 351.32592773 C-26.87510119 341.27535893 -51.7087302 321.55385812 -72.67211914 302.43920898 C-74.75449775 300.55216237 -76.86918103 298.71534541 -79.00415039 296.88842773 C-86.580174 290.27662532 -93.55281387 283.03250168 -100.00415039 275.32592773 C-100.69766602 274.52155273 -101.39118164 273.71717773 -102.10571289 272.88842773 C-107.66021298 266.26342399 -111.44431914 261.06377149 -110.94165039 252.20092773 C-109.69461541 238.85546566 -91.86885206 224.98639441 -82.94165039 216.01342773 C-82.03237793 215.0949707 -81.12310547 214.17651367 -80.1862793 213.23022461 C-74.09863707 207.16993028 -67.73027678 201.6627295 -61.00415039 196.32592773 C-59.70316799 195.2652689 -58.40350564 194.20298696 -57.10571289 193.13842773 C-49.30987989 186.81270352 -41.35506014 180.90258922 -33.00415039 175.32592773 C-36.46370091 172.5142081 -39.99590098 169.82218702 -43.57397461 167.16503906 C-54.51254803 159.03972431 -64.93177503 150.50722407 -75.00415039 141.32592773 C-76.71234199 139.80493521 -78.42067489 138.28410135 -80.12915039 136.76342773 C-87.23849851 130.35500126 -93.81718979 123.62602351 -100.00415039 116.32592773 C-101.1759082 114.98788086 -101.1759082 114.98788086 -102.37133789 113.62280273 C-108.08182471 106.94536447 -111.36139453 102.26531836 -110.87915039 93.26342773 C-109.79757705 79.91681275 -91.84722413 65.96465561 -82.94165039 57.01342773 C-82.03237793 56.0949707 -81.12310547 55.17651367 -80.1862793 54.23022461 C-74.09849147 48.16978533 -67.73586126 42.65638769 -61.00415039 37.32592773 C-59.55622396 36.1527627 -58.1083066 34.97958647 -56.66040039 33.80639648 C-41.43849279 21.67186606 -25.13076518 11.54493981 -8.00415039 2.32592773 C-6.42053711 1.39973633 -6.42053711 1.39973633 -4.80493164 0.45483398 C-2.00415039 -0.67407227 -2.00415039 -0.67407227 0 0 Z " fill="#80CBB8" transform="translate(111.004150390625,117.674072265625)"/>
<path d="M0 0 C2.04551047 0.00373685 4.09102274 0.00658064 6.13653564 0.00857544 C11.48267687 0.01615902 16.82870694 0.03576138 22.17480469 0.0579834 C27.645167 0.07855633 33.11554753 0.08760148 38.5859375 0.09765625 C49.29171512 0.11901292 59.99741076 0.1530841 70.703125 0.1953125 C70.71615288 2.27358353 70.72544177 4.35187823 70.7331543 6.43017578 C70.73872849 7.58752228 70.74430267 8.74486877 70.75004578 9.93728638 C70.44698772 30.98065244 61.36547091 53.66025406 46.51953125 68.59375 C41.41460828 73.30925443 35.97403941 77.19555845 29.703125 80.1953125 C30.404375 80.61941406 31.105625 81.04351562 31.828125 81.48046875 C53.8646628 95.10360013 63.46652155 114.7852411 69.453125 139.26171875 C70.49357509 144.22553272 70.78140336 148.9516939 70.74609375 154.0234375 C70.73989014 155.18262695 70.73368652 156.34181641 70.72729492 157.53613281 C70.71931885 158.41366211 70.71134277 159.29119141 70.703125 160.1953125 C58.26318054 160.26503699 45.82328311 160.31823744 33.38318253 160.35074902 C27.60580763 160.36635841 21.82856711 160.38750993 16.05126953 160.42163086 C10.4686019 160.45439334 4.88606298 160.47220101 -0.69669342 160.47994423 C-2.81918613 160.48545753 -4.94167236 160.49622315 -7.0641098 160.51250267 C-30.13933406 160.68234343 -46.95422845 156.04194801 -64.296875 140.1953125 C-65.08320313 139.47859375 -65.86953125 138.761875 -66.6796875 138.0234375 C-70.30778902 134.5643873 -72.63227609 131.99863273 -74.296875 127.1953125 C-71.96558326 125.00562852 -69.63145523 122.81898962 -67.296875 120.6328125 C-66.32427734 119.71918945 -66.32427734 119.71918945 -65.33203125 118.78710938 C-62.0523502 115.71849691 -58.74627296 112.69835899 -55.34765625 109.76171875 C-50.90380277 105.89520776 -46.67643711 101.83187512 -42.484375 97.6953125 C-41.73478516 96.97472656 -40.98519531 96.25414062 -40.21289062 95.51171875 C-35.23016642 90.58688143 -31.96260628 86.64004778 -30.8984375 79.53515625 C-30.95735969 73.49563177 -31.60689828 68.98491799 -35.984375 64.4453125 C-36.4175 64.0328125 -36.850625 63.6203125 -37.296875 63.1953125 C-37.296875 62.5353125 -37.296875 61.8753125 -37.296875 61.1953125 C-37.956875 61.1953125 -38.616875 61.1953125 -39.296875 61.1953125 C-40.7421875 59.69140625 -40.7421875 59.69140625 -42.421875 57.6328125 C-45.4846058 54.02361935 -48.72926693 50.96017413 -52.3359375 47.90625 C-54.21568126 46.26615485 -55.94144432 44.55323588 -57.671875 42.7578125 C-61.86344872 38.47871172 -66.56850304 34.85813585 -71.296875 31.1953125 C-70.8414086 26.84767867 -68.00852061 24.37026269 -65.046875 21.4453125 C-64.51255859 20.91671631 -63.97824219 20.38812012 -63.42773438 19.84350586 C-45.11215368 2.31950367 -24.11589229 -0.13023494 0 0 Z " fill="#275680" transform="translate(441.296875,135.8046875)"/>
<path d="M0 0 C2.22057797 0.00934571 4.44116638 0.01645349 6.66175842 0.0214386 C12.45691267 0.04036994 18.25142285 0.08934907 24.04632568 0.1449585 C29.97936292 0.19645259 35.912506 0.2190166 41.84570312 0.24414062 C53.4508011 0.29748299 65.05542475 0.38262469 76.66015625 0.48828125 C76.67223715 2.40338606 76.68084291 4.31851299 76.68798828 6.23364258 C76.6931546 7.30012527 76.69832092 8.36660797 76.7036438 9.46540833 C76.3947428 30.93749613 66.37782429 53.58957879 51.46484375 68.71484375 C46.62425549 73.21810879 41.58701121 76.57389394 35.66015625 79.48828125 C36.34980469 79.90078125 37.03945313 80.31328125 37.75 80.73828125 C59.91686061 94.3607141 69.40751078 114.0126214 75.41015625 138.5546875 C76.45060634 143.51850147 76.73843461 148.24466265 76.703125 153.31640625 C76.69692139 154.4755957 76.69071777 155.63478516 76.68432617 156.82910156 C76.6763501 157.70663086 76.66837402 158.58416016 76.66015625 159.48828125 C64.35059599 159.55800992 52.04108327 159.61120828 39.7313652 159.64371777 C34.0145237 159.65932626 28.29781804 159.6804761 22.58105469 159.71459961 C17.05674161 159.74736535 11.53255863 159.76517043 6.00815582 159.77291298 C3.90799158 159.77842571 1.80783389 159.78919017 -0.29227448 159.80547142 C-14.17348573 159.90873735 -26.6712845 159.4590153 -39.27734375 152.98828125 C-39.94701172 152.64788818 -40.61667969 152.30749512 -41.30664062 151.95678711 C-52.02625659 146.24770254 -60.69163067 137.84636674 -68.33984375 128.48828125 C-67.03967859 125.59196251 -65.70473952 123.63633819 -63.36328125 121.5 C-62.47962891 120.68692383 -62.47962891 120.68692383 -61.578125 119.85742188 C-60.96324219 119.30248047 -60.34835937 118.74753906 -59.71484375 118.17578125 C-59.12316406 117.63244141 -58.53148437 117.08910156 -57.921875 116.52929688 C-54.7877967 113.66259674 -51.61120011 110.85230187 -48.3984375 108.07421875 C-44.12172019 104.34219726 -40.05533963 100.42334846 -36.02734375 96.42578125 C-35.32544922 95.74451172 -34.62355469 95.06324219 -33.90039062 94.36132812 C-29.4641449 89.95891459 -25.86100615 86.1261992 -24.94140625 79.70703125 C-24.95300781 78.36125 -24.95300781 78.36125 -24.96484375 76.98828125 C-24.95710938 76.09109375 -24.949375 75.19390625 -24.94140625 74.26953125 C-25.75641026 68.58048362 -28.76770832 64.67360915 -32.58984375 60.55078125 C-33.78673828 59.25914062 -33.78673828 59.25914062 -35.0078125 57.94140625 C-39.79667878 52.90387188 -44.67531348 48.13523816 -49.94140625 43.59765625 C-55.16885841 39.00022276 -60.23823717 34.22437638 -65.33984375 29.48828125 C-60.52351683 18.00936876 -46.38378429 9.0785267 -35.47477722 4.20951843 C-23.70220857 -0.31485257 -12.48317512 -0.15580918 0 0 Z " fill="#287FBA" transform="translate(435.33984375,295.51171875)"/>
<path d="M0 0 C2.35835117 1.56675293 3.3117984 2.96913798 4.73022461 5.41186523 C5.21813477 6.25040039 5.70604492 7.08893555 6.20874023 7.95288086 C6.96960938 9.31316406 6.96960938 9.31316406 7.74584961 10.70092773 C8.2737207 11.63614258 8.8015918 12.57135742 9.34545898 13.53491211 C23.20561082 38.67226421 30.21319432 65.74980473 30.30834961 94.38842773 C30.31227722 95.51734436 30.31227722 95.51734436 30.31628418 96.66906738 C30.32089408 109.07956965 29.33130145 120.87404612 26.48120117 132.99291992 C26.0249275 135.18615493 25.78398072 137.29037238 25.61303711 139.52124023 C25.05625727 143.68383235 24.51014487 145.94272161 21.99584961 149.32592773 C17.11617448 152.4167101 11.60826052 154.14852481 6.18334961 156.03686523 C-0.1984523 158.28059369 -5.98569863 161.27740657 -11.87915039 164.57592773 C-12.7748877 165.0717334 -13.670625 165.56753906 -14.59350586 166.07836914 C-18.63522115 168.34188208 -22.51351301 170.67702367 -26.32446289 173.31030273 C-29.63460278 175.38521048 -29.63460278 175.38521048 -32.60961914 174.90795898 C-33.79491211 174.12485352 -33.79491211 174.12485352 -35.00415039 173.32592773 C-35.9902832 172.69041992 -36.97641602 172.05491211 -37.99243164 171.40014648 C-39.10558177 170.61169317 -40.21338055 169.8156481 -41.31665039 169.01342773 C-42.21818848 168.36289429 -42.21818848 168.36289429 -43.13793945 167.69921875 C-54.2883 159.55407223 -64.84645604 150.67169754 -75.00415039 141.32592773 C-76.71175386 139.80427495 -78.42009581 138.28345052 -80.12915039 136.76342773 C-87.23849851 130.35500126 -93.81718979 123.62602351 -100.00415039 116.32592773 C-101.1759082 114.98788086 -101.1759082 114.98788086 -102.37133789 113.62280273 C-108.08182471 106.94536447 -111.36139453 102.26531836 -110.87915039 93.26342773 C-109.79757705 79.91681275 -91.84722413 65.96465561 -82.94165039 57.01342773 C-82.03237793 56.0949707 -81.12310547 55.17651367 -80.1862793 54.23022461 C-74.09849147 48.16978533 -67.73586126 42.65638769 -61.00415039 37.32592773 C-59.55622396 36.1527627 -58.1083066 34.97958647 -56.66040039 33.80639648 C-41.43849279 21.67186606 -25.13076518 11.54493981 -8.00415039 2.32592773 C-6.42053711 1.39973633 -6.42053711 1.39973633 -4.80493164 0.45483398 C-2.00415039 -0.67407227 -2.00415039 -0.67407227 0 0 Z " fill="#9AC7C2" transform="translate(111.004150390625,117.674072265625)"/>
<path d="M0 0 C2.29709895 4.2857378 2.27205826 8.44141015 2.22705078 13.18676758 C2.22734283 13.99704407 2.22763489 14.80732056 2.22793579 15.64215088 C2.2265469 18.30972145 2.21100652 20.97700971 2.1953125 23.64453125 C2.1915808 25.49826403 2.18873457 27.35199879 2.18673706 29.20573425 C2.17911295 34.07686846 2.15947494 38.94788278 2.1373291 43.81896973 C2.11684435 48.79270811 2.10772972 53.76646593 2.09765625 58.74023438 C2.07622791 68.49354216 2.0421067 78.2467611 2 88 C-1.29662508 87.37149319 -4.20860953 86.62277976 -7.29296875 85.29296875 C-8.08251953 84.95563721 -8.87207031 84.61830566 -9.68554688 84.27075195 C-10.51119141 83.91327881 -11.33683594 83.55580566 -12.1875 83.1875 C-13.91005067 82.45548067 -15.63270566 81.72370677 -17.35546875 80.9921875 C-19.84436936 79.92853794 -22.3265076 78.8551891 -24.80078125 77.7578125 C-33.20193465 74.14665953 -42.10547723 72.01292053 -51 70 C-51.89009766 69.79810059 -52.78019531 69.59620117 -53.69726562 69.38818359 C-79.14465358 63.89201671 -107.40578778 63.70225874 -132.98339844 68.63623047 C-136.30571023 69.23553369 -139.64733179 69.61024286 -143 70 C-137.17915366 49.55163824 -113.62086362 31.90818869 -95.84472656 21.99902344 C-77.23220597 11.91929418 -19.44532402 -15.66428879 0 0 Z " fill="#9AC7C2" transform="translate(299,31)"/>
<path d="M0 0 C2.98086996 3.7996357 3.01907181 6.72903798 2.91194153 11.3585968 C2.91303673 12.60327225 2.91303673 12.60327225 2.91415405 13.87309265 C2.91068039 16.6061572 2.87183117 19.33750125 2.83259583 22.07026672 C2.82326688 23.96883208 2.81615115 25.8674095 2.81115723 27.76599121 C2.79209384 32.75577704 2.74299861 37.74483169 2.68763733 42.73432922 C2.63643069 47.82862965 2.61364015 52.92304858 2.5884552 58.01753235 C2.53487933 68.00808745 2.44957439 77.99810059 2.34431458 87.98823547 C-1.04553744 86.86996852 -4.36679506 85.75016424 -7.62443542 84.28901672 C-35.93699907 71.83022899 -63.79806709 65.77598764 -94.65568542 65.67573547 C-95.53587341 65.67178772 -96.4160614 65.66783997 -97.32292175 65.66377258 C-112.44738469 65.63215733 -126.82083323 66.87903568 -141.65568542 69.98823547 C-133.62632268 53.1265737 -120.17321631 39.21129674 -104.65568542 28.98823547 C-103.69533386 28.34499329 -102.7349823 27.7017511 -101.74552917 27.03901672 C-82.90083705 14.91265985 -21.16608929 -16.0339727 0 0 Z " fill="#80CBB8" transform="translate(297.6556854248047,190.0117645263672)"/>
<path d="M0 0 C16.61938294 8.32557998 28.83041636 24.81774845 35 42 C36.96391552 48.25575894 38.54519025 54.6089095 40 61 C40.20238281 61.84304688 40.40476563 62.68609375 40.61328125 63.5546875 C41.16321306 67.03203412 41.26390103 70.48791436 41.3125 74 C41.34150391 74.69867188 41.37050781 75.39734375 41.40039062 76.1171875 C41.44564147 79.80687193 41.12332304 81.80878572 39.10546875 84.9375 C36.60252493 87.38936333 35.66432302 87.92618633 32.1875 88.3125 C28.25067812 87.92653707 26.76603321 86.76603321 24 84 C23.10399998 81.31199995 22.7949683 79.35903277 22.60546875 76.5703125 C21.01408971 55.57769409 15.86110199 36.15941834 -0.5625 21.6875 C-2.3094891 20.24573199 -4.0213045 18.9870302 -5.95703125 17.80859375 C-10.60717187 14.93895504 -10.60717187 14.93895504 -11.80078125 12.0859375 C-12.52348765 8.187703 -12.31153425 6.50490034 -10.1875 3.0625 C-6.76043413 -0.16873353 -4.68522572 -0.59630146 0 0 Z " fill="#2980BA" transform="translate(215,287)"/>
<path d="M0 0 C12.80351287 3.59686315 22.46253805 11.513462 29 23 C35.21745684 35.0452638 39.22700831 50.42752413 37 64 C35.18953252 66.69897206 33.91833113 68.54083444 31 70 C27.12785818 70.43023798 25.47503629 70.31669086 22.1875 68.125 C18.26580415 64.3153526 18.59026864 60.26063959 18.125 55.0625 C16.86611327 42.45713043 14.98976805 31.81054323 5.5625 22.625 C1.19618856 19.85611957 -3.14150512 18.13795065 -8.1875 17.125 C-12.52304321 15.84565938 -13.85343825 14.93536322 -16 11 C-16.74158034 7.04490483 -16.33797846 5.53610376 -14.1875 2.125 C-9.43534143 -1.04310572 -5.54997229 -0.87254719 0 0 Z " fill="#2980BA" transform="translate(175,305)"/>
<path d="M0 0 C10.26607981 1.87409858 19.84337892 7.4203988 26.37890625 15.6015625 C36.1109109 30.00023926 39.98480755 45.73851217 39 63 C36.56401192 64.31537364 34.1263175 65.62739143 31.6875 66.9375 C30.65206055 67.49727539 30.65206055 67.49727539 29.59570312 68.06835938 C28.92861328 68.42607422 28.26152344 68.78378906 27.57421875 69.15234375 C26.96151123 69.48226318 26.34880371 69.81218262 25.7175293 70.15209961 C24 71 24 71 21 72 C20.9906543 71.38181396 20.98130859 70.76362793 20.97167969 70.12670898 C20.71056496 45.28062359 20.71056496 45.28062359 9 24 C4.49376617 19.91295071 -0.36220135 19.03428167 -6.1953125 17.90625 C-9.43357968 16.85990183 -10.8389176 15.58931532 -13 13 C-14.44430855 10.11138291 -14.37688506 8.20352299 -14 5 C-10.16370252 -0.69257045 -6.315728 -0.8964909 0 0 Z " fill="#285681" transform="translate(173,146)"/>
<path d="M0 0 C19.22163259 11.40624351 31.12331412 31.10974708 36.8125 52.3125 C37.96834944 56.89119641 38 60.02634439 38 65 C32.39 66.32 26.78 67.64 21 69 C20.731875 67.7625 20.46375 66.525 20.1875 65.25 C19.99929687 64.42371094 19.81109375 63.59742188 19.6171875 62.74609375 C19.20447255 60.90977345 18.81392895 59.06833439 18.4453125 57.22265625 C14.47143386 38.94772054 4.27136961 24.79344245 -11.234375 14.51953125 C-13.86435625 12.25611819 -13.89969162 10.33538778 -14.17578125 7.00390625 C-13.89253664 3.77491771 -12.29116235 2.16023879 -10 0 C-6.54405768 -1.72797116 -3.53098381 -1.16209594 0 0 Z " fill="#285681" transform="translate(217,129)"/>
<path d="M0 0 C3.34265205 1.20706879 3.94704566 1.92056849 6 5 C6.44670637 9.02035732 6.38249016 11.29621811 4.4375 14.875 C1.18423621 17.71117869 -0.69555461 18.14842915 -5 18 C-8.27523158 16.15396038 -10.48777812 14.81838767 -11.546875 11.05859375 C-11.81934893 7.0698782 -11.22763916 5.32137293 -8.875 2 C-5.50172663 -0.34662495 -4.02250703 -0.59909679 0 0 Z " fill="#374D60" transform="translate(82,331)"/>
<path d="M0 0 C4.25331827 0.86802414 6.18199992 2.40158324 9.0625 5.625 C9.80413232 9.778141 9.51143783 11.79895439 7.5 15.5 C4.24673621 18.33617869 2.36694539 18.77342915 -1.9375 18.625 C-5.21273158 16.77896038 -7.42527812 15.44338767 -8.484375 11.68359375 C-8.75684893 7.6948782 -8.16513916 5.94637293 -5.8125 2.625 C-2.9375 0.625 -2.9375 0.625 0 0 Z " fill="#384C61" transform="translate(78.9375,171.375)"/>
</svg>
